<?xml version="1.0" standalone="no"?>
<!DOCTYPE svg PUBLIC "-//W3C//DTD SVG 20010904//EN"
 "http://www.w3.org/TR/2001/REC-SVG-20010904/DTD/svg10.dtd">
<svg version="1.0" xmlns="http://www.w3.org/2000/svg"
 width="2844.000000pt" height="2944.000000pt" viewBox="0 0 2844.000000 2944.000000"
 preserveAspectRatio="xMidYMid meet">

<g transform="translate(0.000000,2944.000000) scale(0.100000,-0.100000)"
fill="#000000" stroke="none">
<path d="M13805 27594 c-44 -2 -172 -8 -285 -14 -3403 -180 -6586 -1802 -8818
-4493 -1514 -1827 -2508 -4063 -2857 -6428 -92 -630 -132 -1125 -142 -1794
-27 -1823 310 -3596 1000 -5265 455 -1101 1082 -2170 1815 -3095 561 -707
1243 -1402 1923 -1957 1871 -1528 4091 -2461 6449 -2712 490 -52 663 -60 1290
-61 578 0 690 4 1095 41 1994 179 3903 846 5585 1952 2274 1495 4010 3683
4979 6279 750 2010 998 4243 711 6408 -316 2380 -1260 4600 -2748 6462 -526
658 -1132 1278 -1778 1817 -1955 1633 -4317 2611 -6809 2821 -99 8 -252 19
-340 25 -162 10 -923 20 -1070 14z m-2770 -3339 c80 -9 155 -19 167 -24 78
-30 110 -149 109 -407 0 -188 -25 -459 -57 -618 l-6 -29 418 6 c231 3 689 17
1019 31 1542 65 2055 79 2890 79 819 0 1298 -19 1740 -69 158 -18 191 -31 252
-97 238 -258 269 -1228 77 -2397 -159 -966 -431 -1776 -691 -2051 -79 -83
-145 -119 -220 -119 -29 0 -53 -4 -53 -10 0 -6 22 -76 49 -158 62 -188 83
-292 84 -417 0 -172 -47 -297 -154 -405 -144 -147 -437 -250 -707 -250 -204 0
-319 46 -453 180 -98 98 -151 192 -190 336 -30 108 -33 345 -5 449 41 155 122
287 218 356 26 19 47 37 48 42 0 15 -47 25 -146 32 -121 8 -473 -6 -1119 -45
-1078 -65 -1424 -80 -1527 -63 -32 6 -58 8 -58 7 0 -2 16 -29 36 -60 20 -30
55 -97 80 -147 120 -252 135 -488 44 -674 -73 -148 -183 -249 -375 -343 -173
-85 -201 -93 -330 -93 -284 -1 -610 128 -770 305 -63 70 -81 113 -105 251 -32
187 -35 329 -12 490 16 108 19 151 11 197 -12 74 -110 364 -190 557 -201 491
-238 595 -384 1083 -174 584 -211 731 -340 1375 -95 472 -113 605 -125 883 -5
130 -25 360 -45 537 -19 170 -35 330 -35 356 0 77 13 74 -379 72 -540 -3
-1148 -29 -1466 -64 -329 -35 -325 -35 -325 -7 0 35 76 95 195 153 209 102
506 204 1345 460 245 75 558 173 695 217 138 45 277 87 310 94 85 17 310 17
480 -1z m-388 -9055 c28 -12 44 -27 48 -43 4 -14 2 -204 -4 -423 -16 -619 17
-1600 65 -1903 13 -82 13 -96 0 -116 -19 -29 -93 -65 -133 -65 -60 0 -58 -19
-58 594 0 309 -4 567 -9 575 -6 9 -25 -31 -61 -130 -136 -378 -317 -729 -464
-903 -105 -124 -222 -202 -338 -226 -109 -23 -194 3 -269 82 -55 56 -82 113
-100 205 -18 95 -18 169 1 276 48 275 265 638 560 933 204 205 354 304 461
304 110 0 133 -66 68 -191 -40 -75 -108 -159 -129 -159 -25 0 -25 16 -2 78 28
78 18 93 -46 68 -123 -47 -364 -298 -530 -551 -151 -232 -219 -416 -221 -595
0 -82 3 -102 26 -152 35 -75 67 -92 159 -86 99 7 166 44 265 142 44 45 101
113 127 152 136 207 332 650 441 999 l32 100 -13 360 c-17 467 -8 651 34 683
23 16 40 15 90 -8z m8558 -150 c55 -13 72 -37 80 -121 7 -64 5 -73 -13 -92
l-20 -20 -72 27 c-58 21 -88 26 -167 26 -340 0 -923 -254 -1068 -465 -32 -45
-40 -67 -43 -114 -7 -102 45 -172 188 -254 62 -35 239 -95 530 -178 412 -118
577 -191 705 -311 96 -89 127 -153 133 -269 8 -162 -50 -292 -197 -440 -141
-141 -290 -221 -505 -272 -78 -18 -123 -21 -306 -22 -224 0 -305 9 -407 47
-90 33 -102 74 -51 169 39 75 91 123 121 113 31 -9 32 -11 18 -41 -17 -36 0
-50 85 -74 170 -47 434 -46 591 2 219 68 389 220 438 393 42 147 -27 275 -202
372 -99 56 -211 97 -494 183 -481 146 -625 205 -737 306 -85 77 -117 145 -117
246 0 68 4 84 39 153 123 251 578 512 1062 610 154 32 336 43 409 26z m732
-40 c55 -110 87 -639 99 -1620 l7 -545 20 45 c231 532 368 815 490 1011 204
331 347 473 487 487 69 6 111 -12 168 -72 81 -85 128 -199 163 -391 20 -115
34 -467 41 -1073 l3 -273 -33 -30 c-39 -35 -106 -40 -143 -11 l-22 19 12 471
c19 687 3 918 -77 1080 -100 206 -271 95 -507 -328 -115 -205 -342 -690 -486
-1036 -80 -194 -92 -216 -130 -249 -26 -21 -39 -26 -63 -21 -60 12 -66 31 -66
205 0 262 -40 1227 -66 1606 -20 298 -40 479 -65 607 -21 103 -21 109 -5 127
20 22 78 40 121 38 25 -2 34 -10 52 -47z m-13488 -41 c102 -23 155 -107 155
-244 0 -84 -15 -145 -40 -166 -25 -20 -43 9 -59 96 -31 161 -50 185 -147 185
-595 0 -1352 -879 -1494 -1735 -27 -164 -25 -420 4 -540 30 -121 84 -219 148
-267 73 -56 121 -70 265 -75 106 -4 139 -2 210 16 171 43 310 133 490 317 206
212 366 461 698 1087 45 85 58 117 47 117 -34 0 -336 -83 -601 -166 -485 -151
-535 -163 -580 -142 -33 15 -60 74 -49 107 19 54 176 111 506 185 112 25 338
80 503 122 232 58 322 77 395 81 110 6 124 -2 136 -74 6 -37 3 -45 -22 -70
l-28 -28 0 -810 1 -810 22 -50 c12 -27 33 -66 47 -86 40 -59 12 -89 -85 -89
-62 0 -130 35 -156 80 -19 33 -20 52 -20 360 0 179 3 523 8 765 l7 440 -118
-230 c-128 -251 -252 -461 -367 -625 -283 -402 -517 -592 -821 -667 -97 -24
-326 -24 -414 0 -206 55 -333 189 -390 412 -78 305 -32 761 115 1140 282 730
886 1300 1445 1364 105 12 139 12 189 0z m9192 -195 c10 -12 10 -35 -4 -127
-9 -62 -18 -150 -21 -197 -6 -94 7 -457 17 -466 6 -7 135 17 447 82 228 47
220 44 271 115 20 28 55 21 103 -22 92 -80 55 -181 -76 -213 -16 -3 -178 -31
-360 -61 -183 -30 -344 -57 -357 -61 l-24 -5 6 -287 c10 -440 28 -604 87 -777
30 -89 30 -90 12 -115 -25 -33 -102 -65 -136 -56 -80 20 -124 297 -146 911 -6
159 -12 291 -14 293 -5 4 -142 -20 -394 -69 -111 -21 -225 -39 -253 -39 -103
0 -161 68 -111 130 16 20 32 24 119 31 78 6 481 74 620 104 l22 5 -6 304 c-6
321 -1 392 38 468 11 21 31 44 47 52 36 20 96 20 113 0z m-1507 -474 c161 -24
247 -99 247 -215 0 -132 -123 -255 -375 -376 -129 -62 -336 -130 -499 -165
l-127 -28 -10 -36 c-38 -143 -39 -364 -1 -462 29 -75 97 -150 169 -185 50 -24
71 -28 173 -31 136 -5 206 9 319 65 139 68 306 266 436 516 49 95 70 127 82
125 32 -6 27 -86 -12 -188 -82 -210 -169 -346 -316 -490 -147 -145 -285 -207
-480 -217 -141 -7 -231 9 -332 59 -137 69 -222 176 -259 328 -19 79 -17 286 4
388 96 458 462 864 822 912 84 11 83 11 159 0z m9721 0 c22 -8 26 -15 21 -33
-22 -77 -26 -72 61 -85 89 -14 277 -60 398 -98 379 -118 665 -293 738 -451 33
-73 31 -180 -6 -255 -37 -75 -125 -156 -227 -207 -191 -95 -557 -182 -879
-206 l-93 -8 6 -351 c3 -193 9 -390 12 -437 9 -128 -20 -173 -109 -167 -71 5
-70 0 -75 505 l-5 442 -97 -6 c-95 -6 -99 -5 -123 19 -45 45 -45 158 0 175 9
4 46 -1 82 -10 36 -9 83 -19 105 -23 l38 -7 -4 481 c-2 265 -7 484 -10 488 -4
3 -49 11 -100 16 -157 15 -217 62 -192 149 15 51 33 56 105 30 122 -44 172
-56 176 -44 25 75 104 111 178 83z m-11698 -17 c19 -9 46 -33 60 -53 43 -66
41 -200 -3 -200 -9 0 -35 20 -58 45 -48 51 -66 54 -161 29 -156 -40 -316 -183
-480 -429 -140 -209 -234 -442 -243 -601 -9 -166 16 -214 108 -214 101 0 249
103 411 283 243 272 413 556 534 893 60 168 81 187 167 143 40 -20 40 -21 34
-65 -7 -57 28 -236 128 -649 110 -455 136 -609 136 -811 0 -310 -120 -589
-354 -819 -119 -117 -246 -207 -391 -277 -117 -55 -238 -85 -300 -74 -50 10
-95 55 -95 95 0 42 42 71 170 116 186 66 323 143 465 262 180 151 285 356 310
603 9 91 -11 350 -41 510 -14 74 -48 230 -76 345 -27 116 -60 263 -72 329
l-22 118 -33 -73 c-140 -315 -392 -675 -632 -903 -160 -152 -281 -217 -411
-218 -125 -1 -195 69 -219 222 -53 342 258 966 628 1261 154 122 342 179 440
132z m-3467 -44 c55 -25 124 -90 153 -144 31 -58 29 -160 -5 -241 l-25 -62 30
9 c38 11 54 -1 66 -50 5 -20 17 -234 26 -476 9 -242 21 -452 26 -467 6 -15 19
-34 30 -44 23 -21 24 -55 3 -97 -56 -110 -143 -117 -194 -17 -24 48 -44 178
-36 240 3 25 6 171 7 325 1 210 -2 287 -11 308 -7 15 -17 27 -21 27 -4 0 -55
-73 -114 -162 -161 -244 -261 -371 -386 -494 -139 -135 -229 -203 -334 -255
-105 -51 -190 -72 -300 -73 -78 -1 -97 2 -139 24 -61 32 -103 89 -118 163 -24
115 32 283 172 516 256 426 676 855 946 966 75 31 161 33 224 4z m13753 -36
c27 -25 21 -45 -41 -119 -202 -240 -345 -524 -387 -763 -22 -122 -20 -295 4
-346 38 -82 118 -129 249 -145 142 -18 276 14 403 95 116 75 201 173 262 303
41 87 44 180 8 260 -29 64 -139 171 -268 260 -129 88 -192 140 -205 168 -28
61 45 110 179 121 67 5 81 3 93 -12 11 -13 11 -21 2 -36 -7 -10 -12 -23 -12
-28 0 -5 37 -37 83 -72 133 -102 259 -235 298 -314 28 -57 34 -81 37 -155 5
-102 -10 -165 -68 -280 -89 -177 -245 -327 -433 -415 -123 -58 -183 -70 -357
-70 -137 1 -162 3 -211 23 -183 73 -271 212 -270 429 0 176 59 446 139 631 54
125 148 292 202 360 47 58 131 117 179 125 40 7 94 -3 114 -20z m417 -2504
c55 -12 100 -46 139 -102 43 -62 52 -108 41 -191 -14 -99 -28 -136 -50 -136
-29 0 -39 22 -55 130 -9 58 -23 115 -31 129 -14 21 -21 23 -60 17 -153 -20
-320 -202 -466 -505 -66 -135 -156 -396 -184 -531 -25 -120 -23 -252 4 -312
32 -73 67 -90 172 -86 96 5 155 27 261 99 85 57 289 258 408 399 53 63 101
118 106 122 17 13 53 9 58 -6 24 -63 -414 -567 -598 -687 -235 -154 -455 -123
-562 78 -60 113 -65 232 -16 451 119 547 461 1079 727 1132 56 11 55 11 106
-1z m-1466 -90 c83 -17 156 -64 184 -119 53 -103 5 -221 -134 -328 -82 -62
-242 -146 -374 -195 -137 -51 -238 -78 -456 -122 -18 -4 -24 -19 -40 -97 -27
-135 -25 -303 5 -387 55 -158 160 -236 336 -248 153 -11 326 43 437 135 110
92 258 293 349 474 38 75 54 98 67 96 61 -13 -50 -312 -186 -502 -80 -111
-231 -252 -318 -298 -114 -60 -208 -82 -354 -82 -110 0 -135 4 -203 27 -242
84 -347 246 -347 535 0 307 135 625 363 855 82 82 219 182 292 213 119 49 264
66 379 43z m-1554 -1353 c19 -28 56 -73 82 -101 52 -56 79 -109 102 -198 18
-69 14 -82 -26 -96 -54 -19 -120 -13 -160 14 -48 32 -109 126 -147 225 -38 97
-38 120 -4 160 55 66 104 65 153 -4z"/>
<path d="M11039 22653 c-70 -6 -83 -26 -87 -134 -12 -298 164 -1003 604 -2413
16 -48 34 -90 40 -93 13 -5 754 104 762 112 2 2 -3 41 -12 87 -8 46 -38 290
-66 543 -28 253 -53 473 -56 489 l-6 28 -132 -5 -131 -6 129 15 c72 8 131 16
133 17 1 2 -30 287 -69 635 -68 609 -70 633 -53 652 22 24 33 18 55 -34 52
-117 223 -942 237 -1143 3 -46 9 -86 13 -88 5 -3 282 23 616 57 l609 62 0 431
c1 460 10 581 54 680 l20 44 -32 6 c-18 3 -259 5 -537 3 -416 -2 -541 0 -710
15 -113 9 -286 22 -385 28 -186 11 -914 20 -996 12z"/>
<path d="M15155 22624 c-27 -2 -144 -12 -260 -21 -170 -15 -298 -17 -677 -15
l-468 3 0 -33 c1 -77 58 -1099 61 -1102 3 -2 1120 107 1329 131 l75 8 7 100
c38 504 55 671 83 800 9 39 20 77 25 85 26 42 28 -21 16 -485 -8 -264 -12
-483 -10 -486 1 -3 65 0 141 7 501 45 979 62 1138 41 l60 -7 59 232 c68 271
151 531 196 616 31 58 33 60 81 66 52 7 63 21 27 35 -23 9 -56 -2 -69 -21 -6
-10 -183 -3 -704 28 -236 14 -1002 26 -1110 18z"/>
<path d="M15976 21429 c-351 -15 -640 -30 -643 -33 -3 -3 -9 -150 -14 -328 -4
-178 -10 -396 -14 -484 l-5 -162 87 -6 c154 -12 311 -36 398 -61 97 -28 221
-82 212 -92 -4 -3 -160 -16 -347 -28 -187 -11 -343 -25 -347 -29 -4 -4 -11
-116 -14 -249 -4 -133 -7 -243 -8 -244 -1 -2 -8 -3 -16 -3 -29 0 -54 136 -70
396 l-7 100 -56 -4 c-32 -2 -324 -20 -649 -41 -326 -21 -596 -40 -599 -44 -7
-6 12 -467 22 -546 3 -26 2 -41 -4 -37 -34 21 -87 207 -126 441 l-22 130 -31
3 c-29 3 -1077 -60 -1225 -74 -57 -5 -67 -9 -72 -27 l-6 -22 -18 22 -17 22
-390 -26 c-214 -13 -392 -26 -393 -28 -3 -3 357 -1095 363 -1103 1 -2 144 44
316 102 1118 375 2254 605 3359 681 335 23 395 38 517 128 72 54 114 106 155
195 43 95 69 205 157 667 44 231 99 505 121 609 43 203 44 207 33 205 -5 -1
-295 -14 -647 -30z"/>
<path d="M14505 21368 c-374 -16 -683 -33 -686 -36 -3 -4 6 -230 20 -502 25
-479 27 -495 46 -498 11 -1 126 8 255 22 327 35 600 56 840 64 l205 7 6 410
c4 226 8 443 10 484 3 44 0 75 -6 76 -5 1 -316 -11 -690 -27z"/>
<path d="M12965 21303 c-308 -13 -561 -26 -563 -28 -2 -1 4 -110 13 -241 9
-132 19 -383 21 -559 3 -176 7 -325 9 -331 2 -8 19 -9 57 -3 87 14 902 126
1048 144 74 9 144 18 156 20 l20 4 -18 158 c-20 181 -54 572 -64 746 l-7 117
-56 -1 c-31 -1 -308 -13 -616 -26z"/>
<path d="M15905 18261 c-131 -61 -179 -184 -120 -301 97 -192 427 -182 516 15
21 46 24 92 8 146 -43 143 -248 214 -404 140z"/>
<path d="M11990 18260 c-190 -33 -287 -185 -206 -324 48 -82 144 -129 262
-129 82 1 153 26 207 73 54 48 77 93 77 154 0 65 -20 105 -74 153 -69 61 -172
89 -266 73z"/>
<path d="M13901 14145 c-125 -35 -264 -137 -355 -258 -55 -74 -109 -165 -121
-204 -6 -20 -3 -23 23 -23 48 0 230 50 335 91 125 50 205 90 288 145 154 102
180 182 77 235 -55 28 -173 35 -247 14z"/>
<path d="M23854 13953 c3 -60 9 -276 12 -480 l7 -373 49 0 c78 0 232 19 372
46 302 59 567 180 621 285 8 15 15 52 15 81 0 222 -396 426 -1049 542 l-34 6
7 -107z"/>
<path d="M8460 14069 c-169 -77 -496 -415 -705 -729 -155 -234 -238 -449 -205
-530 26 -62 108 -73 249 -34 176 50 400 234 582 480 128 171 297 434 316 487
11 35 17 84 18 148 0 89 -2 98 -28 132 -15 20 -41 44 -57 52 -40 21 -117 18
-170 -6z"/>
<path d="M21083 11456 c-167 -63 -355 -249 -427 -420 -25 -61 -22 -67 27 -60
290 44 724 261 753 377 8 35 -17 72 -67 102 -54 31 -205 32 -286 1z"/>
</g>
</svg>
